<svg id="Layer_1" data-name="Layer 1" xmlns="http://www.w3.org/2000/svg" viewBox="0 0 52 52"><defs><style>.cls-1{fill:#fff;}</style></defs><title>lmArtboard 1</title><g id="stroke"><path class="cls-1" d="M45,10H7a3.0033,3.0033,0,0,0-3,3V39a3.0033,3.0033,0,0,0,3,3H45a2.9659,2.9659,0,0,0,1.2827-.2992l.0591.0516.14-.16A2.99,2.99,0,0,0,48,39V13A3.0033,3.0033,0,0,0,45,10ZM32.0726,26.61,46,13.3792V38.7967ZM6,38.6762V13.3792L19.925,26.608ZM7.4517,12H44.5484L26,29.6206Zm.0756,28,13.855-12.0076,3.9292,3.7327a1,1,0,0,0,1.377,0l3.9285-3.732L44.339,40Z"/></g></svg>