<?xml version="1.0" encoding="utf-8"?>
<!-- Generator: Adobe Illustrator 22.1.0, SVG Export Plug-In . SVG Version: 6.00 Build 0)  -->
<svg version="1.1" id="Layer_1" xmlns="http://www.w3.org/2000/svg" xmlns:xlink="http://www.w3.org/1999/xlink" x="0px" y="0px"
	 viewBox="0 0 52 52" style="enable-background:new 0 0 52 52;" xml:space="preserve">
<style type="text/css">
	.st0{fill:url(#SVGID_1_);}
	.st1{display:none;}
	.st2{display:inline;}
</style>
<linearGradient id="SVGID_1_" gradientUnits="userSpaceOnUse" x1="8.2927" y1="8.2927" x2="43.7073" y2="43.7073">
	<stop  offset="0.3663" style="stop-color:#F19024"/>
	<stop  offset="1" style="stop-color:#EC008C"/>
</linearGradient>
<path class="st0" d="M44.3164,13.0518l-12-4c-0.024-0.0081-0.049-0.0092-0.0733-0.0154c-0.0427-0.0107-0.0848-0.0217-0.1285-0.0269
	c-0.0386-0.0046-0.0765-0.0039-0.1151-0.0039c-0.0385,0-0.0764-0.0007-0.1149,0.0039c-0.0444,0.0051-0.0872,0.0162-0.1307,0.0273
	c-0.0233,0.0061-0.0474,0.0071-0.0704,0.0149l-4.8184,1.6064c-0.5234,0.1738-0.8066,0.7402-0.6318,1.2646
	c0.1748,0.5234,0.7363,0.8076,1.2646,0.6318L31,11.3877v25.8916l-10,3.333V26c0-0.5527-0.4473-1-1-1s-1,0.4473-1,1v14.6129
	L9,37.2793V11.3877l3.4961,1.165c0.5293,0.1748,1.0898-0.1084,1.2646-0.6318c0.1748-0.5244-0.1084-1.0908-0.6318-1.2646
	L8.3164,9.0518C8.0107,8.9482,7.6758,9,7.415,9.1885C7.1542,9.377,7,9.6787,7,10v28c0,0.4307,0.2754,0.8125,0.6836,0.9482l12,4
	c0.0015,0.0005,0.0031,0.0002,0.0046,0.0007C19.7891,42.9821,19.8941,43,20,43c0.1071,0,0.2118-0.0182,0.3113-0.0509
	c0.0016-0.0006,0.0034-0.0004,0.0051-0.0009L32,39.0537l11.6836,3.8945C43.7871,42.9834,43.8936,43,44,43
	c0.207,0,0.4121-0.0645,0.585-0.1885C44.8457,42.623,45,42.3213,45,42V14C45,13.5693,44.7246,13.1875,44.3164,13.0518z M43,40.6123
	l-10-3.333V11.3877l10,3.333V40.6123z M21,14c0,0.5523-0.4477,1-1,1s-1-0.4477-1-1s0.4477-1,1-1S21,13.4477,21,14z M20.0127,9
	c-0.0029,0-0.0049,0-0.0078,0c-0.0039,0-0.0059,0-0.0098,0c-0.0039-0.001-0.0059-0.001-0.0078,0
	C17.2041,9.0088,15.0146,11.1973,15,13.9902c-0.0088,1.8477,0.7129,4.834,4.1875,8.5977C19.373,22.8428,19.6729,23,19.9971,23
	h0.0098c0.3242,0,0.624-0.1572,0.8096-0.4131c3.4717-3.7637,4.1924-6.749,4.1836-8.5967C24.9854,11.1973,22.7959,9.0088,20.0127,9z
	 M20.002,20.4902C17.5312,17.5752,16.9932,15.374,17,14c0.0088-1.6807,1.3262-2.9971,3-3c1.6738,0.0029,2.9912,1.3193,3,3
	C23.0068,15.374,22.4697,17.5752,20.002,20.4902z"/>
<g id="filled" class="st1">
	<g class="st2">
		<path d="M44.3164,13.0518L33,9.2795V39.387l10.6836,3.5613C43.7871,42.9834,43.8936,43,44,43c0.207,0,0.4121-0.0645,0.5845-0.1885
			C44.8457,42.623,45,42.3213,45,42V14C45,13.5693,44.7246,13.1875,44.3164,13.0518z"/>
		<path d="M19.9976,23h0.0093c0.3237,0,0.6221-0.1562,0.8076-0.4102c3.4736-3.7646,4.1948-6.752,4.1855-8.5996
			C24.9854,11.1973,22.796,9.0088,20.0128,9c-0.0029,0-0.0054,0-0.0078,0c-0.0029,0-0.0068,0-0.0098,0c-0.0034,0-0.0049,0-0.0078,0
			c-2.7842,0.0088-4.9731,2.1973-4.9873,4.9902c-0.0093,1.8486,0.7129,4.835,4.1899,8.5996C19.3761,22.8438,19.6744,23,19.9976,23z
			 M18.0001,14c0-1.1045,0.8954-2,2-2s2,0.8955,2,2s-0.8954,2-2,2S18.0001,15.1045,18.0001,14z"/>
		<g>
			<path d="M26.263,10.8586c0.4632,0.9357,0.7311,1.9912,0.737,3.1208c0.0117,2.1914-0.7891,5.6855-4.6582,9.9043
				c-0.3513,0.4348-0.823,0.7427-1.3418,0.9265v17.9102l10-3.3335V9.2795L26.263,10.8586z"/>
			<path d="M13,13.9805c0.0059-1.1301,0.2739-2.186,0.7368-3.1218L8.3164,9.0518C8.0112,8.9482,7.6763,9,7.4155,9.1885
				C7.1543,9.377,7,9.6787,7,10v28c0,0.4307,0.2754,0.8125,0.6836,0.9482L19,42.7205V24.8076
				c-0.5176-0.1846-0.9868-0.4912-1.3369-0.9238C13.792,19.667,12.9893,16.1738,13,13.9805z"/>
		</g>
	</g>
</g>
</svg>
