<svg id="Layer_1" data-name="Layer 1" xmlns="http://www.w3.org/2000/svg" viewBox="0 0 60 64"><defs><style>.cls-1{fill:#ebebeb;}.cls-2{fill:none;}.cls-3{fill:#fff;}.cls-4{fill:#e9ebee;}.cls-5{fill:#262626;}.cls-6{fill:#ec008c;}</style></defs><title>Artboard 1</title><circle class="cls-1" cx="30" cy="33.8" r="30"/><path class="cls-2" d="M37.8,26.8a1.0021,1.0021,0,0,0-1-1H32.3a1.0021,1.0021,0,0,0-1,1v2.5h6.4l.1-2.5Z"/><path class="cls-2" d="M20.7,16a1.0021,1.0021,0,0,0-1-1H15.3a1.0021,1.0021,0,0,0-1,1v2.5h6.4Z"/><polygon class="cls-2" points="52.1 25.5 54.4 27.2 58.2 27.2 58.2 23.7 54.4 23.7 52.1 25.5"/><polygon class="cls-3" points="30.8 30.2 27.6 30.2 27.1 30.2 26.6 30.2 26.1 30.2 26.1 46.7 26.1 47.2 26.1 47.7 26.1 50.1 26.1 51.5 43 51.5 43 50.6 43 30.2 38.3 30.2 30.8 30.2"/><path class="cls-3" d="M19.5,31.2V50.5a1.0021,1.0021,0,0,0,1,1h4.7V30.2H20.5A1.0021,1.0021,0,0,0,19.5,31.2Z"/><path class="cls-4" d="M26.4,19.5H8.6a.2151.2151,0,0,0-.2.2V46.4a.2151.2151,0,0,0,.2.2h9.9V31.2a2.0059,2.0059,0,0,1,2-2h6.2V19.7C26.6,19.6,26.5,19.5,26.4,19.5ZM13.2,42a.5.5,0,0,1-1,0V24a.5.5,0,0,1,1,0Zm10-15a.5.5,0,0,1-1,0V24a.5.5,0,0,1,1,0Z"/><path class="cls-5" d="M12.7,42.5a.4724.4724,0,0,0,.5-.5V24a.5.5,0,0,0-1,0V42A.4724.4724,0,0,0,12.7,42.5Z"/><path class="cls-5" d="M22.7,27.5a.4724.4724,0,0,0,.5-.5V24a.5.5,0,0,0-1,0v3A.4724.4724,0,0,0,22.7,27.5Z"/><path class="cls-6" d="M32.7,14.8a.4941.4941,0,0,0-.7-.1.4827.4827,0,0,0-.1.7l2.5,3.9a.5148.5148,0,0,0,.9-.5h0Z"/><path class="cls-6" d="M50.4,14.9a.5272.5272,0,0,0-.7.2h0l-2.3,4a.5148.5148,0,1,0,.9.5h0l2.3-4a.6628.6628,0,0,0-.2-.7Z"/><path class="cls-6" d="M41.3,12.1a.4724.4724,0,0,0-.5.5h0l.1,4.7a.4724.4724,0,0,0,.5.5h0a.4724.4724,0,0,0,.5-.5h0l-.1-4.7C41.9,12.3,41.6,12.1,41.3,12.1Z"/><path d="M14.6,49.4a1.538,1.538,0,0,0-1.5,1.5h0a1.5,1.5,0,1,0,1.5-1.5Z"/><path class="cls-3" d="M49.6,31.2a1.0021,1.0021,0,0,0-1-1H43.9V51.5h4.8a.9866.9866,0,0,0,.9-1Z"/><path class="cls-5" d="M58.7,22.7H54.2a.3674.3674,0,0,0-.3.1l-2.5,1.8h0a3.9133,3.9133,0,0,0-4.9.3,3.8537,3.8537,0,0,0-.8,4.2h-7V26.6a2.0059,2.0059,0,0,0-2-2H32.2a2.0059,2.0059,0,0,0-2,2v2.5H27.5V19.6a1.216,1.216,0,0,0-1.2-1.2H21.6V15.9a2.0059,2.0059,0,0,0-2-2H15.2a2.0059,2.0059,0,0,0-2,2v2.5H8.6a1.216,1.216,0,0,0-1.2,1.2V46.3a1.216,1.216,0,0,0,1.2,1.2h9.9v2.8a2.0059,2.0059,0,0,0,2,2H48.7a2.0059,2.0059,0,0,0,2-2V43h0V31a2.0059,2.0059,0,0,0-2-2H46.9a2.7268,2.7268,0,0,1,3.8-3.8v.1a.52.52,0,0,0,.2.4l3,2.2a.3674.3674,0,0,0,.3.1h4.5a.4724.4724,0,0,0,.5-.5V23S58.9,22.7,58.7,22.7ZM31.3,26.8a1.0021,1.0021,0,0,1,1-1h4.5a1.0021,1.0021,0,0,1,1,1v2.5H31.4V26.8ZM14.3,16a1.0021,1.0021,0,0,1,1-1h4.5a1.0021,1.0021,0,0,1,1,1v2.5H14.4L14.3,16Zm4.2,15.2V46.7H8.6a.2151.2151,0,0,1-.2-.2V19.7a.2151.2151,0,0,1,.2-.2H26.4a.2151.2151,0,0,1,.2.2v9.5H20.5A2.0059,2.0059,0,0,0,18.5,31.2Zm6.6,15.5v4.8H20.5a1.0021,1.0021,0,0,1-1-1V31.2a1.0021,1.0021,0,0,1,1-1h4.7V46.7ZM43,50.6v.9H26.1V30.2H42.9L43,50.6Zm6.6-19.4V50.5a1.0634,1.0634,0,0,1-.9,1H43.9V30.2h4.7A1.0021,1.0021,0,0,1,49.6,31.2Zm8.6-4H54.4l-2.3-1.7,2.3-1.7h3.8Z"/></svg>