<svg id="Layer_1" data-name="Layer 1" xmlns="http://www.w3.org/2000/svg" viewBox="0 0 60 64"><defs><style>.cls-1{fill:#ebebeb;}.cls-2{fill:none;}.cls-3{fill:#f799d1;}.cls-4{fill:#fff;}.cls-5{fill:#262626;}.cls-6{fill:#ec008c;}</style></defs><title>Artboard 1</title><circle class="cls-1" cx="30" cy="33.8" r="30"/><path class="cls-2" d="M46,28.5H38a.6644.6644,0,0,1-.5-.4l-1.9-8.7-5.7-.9a.4575.4575,0,0,1-.4-.5V13.4a9.702,9.702,0,0,0-1.7.1v.2c0,2-.8,5.4-4.7,9.6a.7581.7581,0,0,1-.4.2h0a.52.52,0,0,1-.4-.2,21.5838,21.5838,0,0,1-4.1-6.2,20.5059,20.5059,0,0,0-5,28.5,20.2231,20.2231,0,0,0,8.4,6.9l3-3c.1-.1.2-.1.4-.1H35c.1,0,.3.1.4.1l3,3a20.4834,20.4834,0,0,0,10.4-27,9.1432,9.1432,0,0,0-.7-1.4L46.5,28C46.4,28.3,46.2,28.5,46,28.5Zm-6.6,3.8-3.9,4.9-3,8.9a.55.55,0,0,1-.5.3H28a.6644.6644,0,0,1-.5-.4l-1.9-8.6H21a.52.52,0,0,1-.4-.2l-3-5a.4464.4464,0,0,1,0-.5L21.4,26c.1-.2.3-.2.5-.2l12.2,1.7a.43.43,0,0,1,.4.4l.9,3.6H39a.4724.4724,0,0,1,.5.5.3674.3674,0,0,1-.1.3Z"/><path class="cls-3" d="M26.7,12.7a4.1642,4.1642,0,0,0-8.2,1,12.2523,12.2523,0,0,0,.2,1.9c.1.3.2.7.3,1a17.8006,17.8006,0,0,0,3.6,5.7c3.4-3.8,4.2-6.8,4.2-8.6v-.1A2.7686,2.7686,0,0,0,26.7,12.7Zm-4,2.7a1.6129,1.6129,0,0,1-.9-.3,1.6643,1.6643,0,1,1,1.8-2.8,1.5958,1.5958,0,0,1,.7.9,1.7042,1.7042,0,0,1,0,1A1.8147,1.8147,0,0,1,22.7,15.4Z"/><path class="cls-4" d="M18.6,32l2.7,4.5H26a.6644.6644,0,0,1,.5.4l1.9,8.6h3.2l2.9-8.7c0-.1,0-.1.1-.2L38,32.4H35a.6644.6644,0,0,1-.5-.4l-.9-3.7L22,26.8Z"/><path class="cls-4" d="M46.2,21.3c-.2-.3-.5-.6-.7-.9-.2-.2-.4-.5-.6-.7l-.7-.7a2.6513,2.6513,0,0,0-.6-.5,21.8377,21.8377,0,0,0-3.1-2.2,26.2024,26.2024,0,0,0-9.9-2.8v4l5.6.9a.43.43,0,0,1,.4.4l1.9,8.6h7.3l1.8-4.3a7.96,7.96,0,0,0-.8-1.2A1.6979,1.6979,0,0,1,46.2,21.3Z"/><path class="cls-4" d="M22.8,52.8A17.5489,17.5489,0,0,0,26,54a17.5611,17.5611,0,0,0,7.9,0,17.2605,17.2605,0,0,0,3.2-1.1l-2.4-2.4H25.1Z"/><path class="cls-5" d="M25.7,55a17.872,17.872,0,0,0,8.6,0A21.4394,21.4394,0,0,0,48.2,22.5a6.782,6.782,0,0,0-.6-.9,4.7008,4.7008,0,0,0-.9-1.2l-.3-.3a11.9853,11.9853,0,0,0-1.1-1.2l-.3-.3a10.9487,10.9487,0,0,0-1.1-1,21.5156,21.5156,0,0,0-16.3-5.1,5.1408,5.1408,0,0,0-5-4h0a5.2756,5.2756,0,0,0-5.2,5.1v.1a7.267,7.267,0,0,0,.4,2.5A21.4913,21.4913,0,0,0,12.2,46a22.1471,22.1471,0,0,0,13.5,9Zm-2.9-2.2,2.4-2.4h9.6l2.4,2.4A12.1292,12.1292,0,0,1,34,53.9a17.5611,17.5611,0,0,1-7.9,0A9.1917,9.1917,0,0,1,22.8,52.8ZM45.4,20.4a5.4956,5.4956,0,0,1,.7.9c.2.2.3.4.5.6.3.4.5.8.8,1.2l-1.8,4.3H38.3l-1.9-8.6a.43.43,0,0,0-.4-.4l-5.6-.9v-4a26.7268,26.7268,0,0,1,9.9,2.8,13.7346,13.7346,0,0,1,2,1.3,10.6274,10.6274,0,0,1,1.1.9,2.6513,2.6513,0,0,0,.6.5l.7.7ZM18.5,13.7a4.2253,4.2253,0,0,1,4.2-4.2,4.0843,4.0843,0,0,1,4,3.1,3.4019,3.4019,0,0,1,.1,1v.1c0,1.8-.7,4.7-4.2,8.6A16.236,16.236,0,0,1,19,16.6c-.1-.3-.2-.7-.3-1A12.2523,12.2523,0,0,1,18.5,13.7Zm-.3,3.5a18.1326,18.1326,0,0,0,4.1,6.2.7581.7581,0,0,0,.4.2h0a.52.52,0,0,0,.4-.2c3.9-4.2,4.7-7.6,4.7-9.6v-.2a9.702,9.702,0,0,1,1.7-.1V18c0,.2.2.5.4.5l5.7.9,1.9,8.7a.6644.6644,0,0,0,.5.4h8a.55.55,0,0,0,.5-.3l1.6-3.9A20.45,20.45,0,0,1,39.7,52c-.4.2-.9.5-1.4.7l-3-3c-.1-.1-.2-.1-.4-.1H25c-.1,0-.3.1-.4.1l-3,3a20.4834,20.4834,0,0,1-10.4-27,20.1184,20.1184,0,0,1,7-8.5Z"/><path class="cls-5" d="M21.8,15.1a1.6643,1.6643,0,1,0,1.8-2.8,1.6129,1.6129,0,0,0-.9-.3A1.6855,1.6855,0,0,0,21,13.7,1.5959,1.5959,0,0,0,21.8,15.1Z"/><path class="cls-5" d="M20.6,37.2a.3992.3992,0,0,0,.4.2h4.6L27.5,46a.6644.6644,0,0,0,.5.4h4a.55.55,0,0,0,.5-.3l3-8.9,3.9-4.9a.4941.4941,0,0,0-.1-.7.3674.3674,0,0,0-.3-.1H35.4l-.9-3.6c0-.2-.2-.3-.4-.4L21.9,25.8a.7638.7638,0,0,0-.5.2l-3.8,5.7a.4464.4464,0,0,0,0,.5Zm13-8.8.9,3.7a.6644.6644,0,0,0,.5.4h3l-3.4,4.2a.3491.3491,0,0,0-.1.2l-2.9,8.7H28.4L26.5,37a.6644.6644,0,0,0-.5-.4H21.3L18.6,32l3.5-5.2Z"/><path class="cls-6" d="M17.6.6A.5483.5483,0,0,0,17,.2a.5483.5483,0,0,0-.4.6l1,4.6c0,.2.3.4.5.4h.1a.5483.5483,0,0,0,.4-.6h0Z"/><path class="cls-6" d="M9.3,14.3,4.8,13.1c-.3-.1-.5.1-.6.4s.1.5.4.6l4.5,1.2c.3.1.5-.1.6-.4a.5483.5483,0,0,0-.4-.6Z"/><path class="cls-6" d="M9.3,5.1A.7549.7549,0,0,0,8.5,5a.4833.4833,0,0,0,0,.7h0l3.2,3.4a.495.495,0,1,0,.7-.7h0Z"/></svg>