<svg id="Layer_1" data-name="Layer 1" xmlns="http://www.w3.org/2000/svg" viewBox="0 0 60 64"><defs><style>.cls-1{fill:#ebebeb;}.cls-2{fill:none;}.cls-3{fill:#262626;}.cls-4{fill:#f799d1;}.cls-5{fill:#fff;}.cls-6{fill:#ec008c;}</style></defs><title>Artboard 1</title><circle class="cls-1" cx="30" cy="33.8" r="30"/><path class="cls-2" d="M25,18.3l13.9-1.6-.4-3.4a3.511,3.511,0,0,0-3.9-3.1h0L21,11.8a3.511,3.511,0,0,0-3.1,3.9l3.4,29.8a3.5688,3.5688,0,0,0,3.9,3.1l1.2-.1L23,20.8A2.2658,2.2658,0,0,1,25,18.3Zm.2-4.6,6-.7a.6752.6752,0,0,1,.6.4.6752.6752,0,0,1-.4.6l-6,.7h-.1a.4724.4724,0,0,1-.5-.5C24.8,13.9,24.9,13.7,25.2,13.7Z"/><path class="cls-2" d="M47.2,15.1a2.0668,2.0668,0,0,0-.5-2.8,2.1443,2.1443,0,0,0-1.2-.4h-.3a2.223,2.223,0,0,0-1.3.8L40,18.2l.7,5.9Z"/><path class="cls-3" d="M34.9,29.2c-.1.1-2.7,1.1-2.7,1.1l-5.5-1.8-1,.5,3.9,2.5-1.9,1.2L26,32.2l-.7.3,1.2,1.3a.9469.9469,0,0,0,1.1.3l8.2-4a.8745.8745,0,0,0,.5-.9A2.234,2.234,0,0,0,34.9,29.2Z"/><path class="cls-4" d="M38.7,47a3.63,3.63,0,0,0,1.7-.7,3.21,3.21,0,0,1,.2-3.4l.9-1.2h0a2.9465,2.9465,0,0,1-3-3,3.2924,3.2924,0,0,1,.6-1.9l1.7-2.1h-.2a3.0085,3.0085,0,0,1-3-3,2.7155,2.7155,0,0,1,.6-1.7l1.9-2.6-.1-.6-.2-1.5-.7-5.9L39,17.9l-.1-1.2L25,18.3a2.2658,2.2658,0,0,0-2,2.5l3.3,27.6Zm-11-14.4,1.9-1.2-3.9-2.5,1-.5,5.5,1.8s2.6-1,2.7-1.1a1.691,1.691,0,0,1,1.4.1c.2.3-.2.7-.5.9l-8.2,4a.9092.9092,0,0,1-1.1-.3l-1.2-1.3.7-.3Z"/><path class="cls-5" d="M39.5,33.4a2.01,2.01,0,0,0,1.3.4,1.93,1.93,0,0,0,1-.3,1.205,1.205,0,0,0,.5-.5l3.4-4.8a2.0112,2.0112,0,1,0-3.3-2.3L41,27.8l-.6.8-.3.4L39,30.6a2.05,2.05,0,0,0,.5,2.8Z"/><path class="cls-5" d="M43.7,32.9,41.9,35l-.6.7-.3.5-1,1.3a2.0309,2.0309,0,0,0,.3,2.8,1.9217,1.9217,0,0,0,1.2.4,3.553,3.553,0,0,0,1-.2.0979.0979,0,0,0,.1-.1l.3-.3.6-.6,3.3-4.2a1.9563,1.9563,0,0,0-.4-2.8,1.9249,1.9249,0,0,0-2.7.4Z"/><path class="cls-5" d="M46.5,40.4a1.9554,1.9554,0,0,0-2.3-.1,2.1813,2.1813,0,0,0-.5.4l-.4.5-.6.8-.6.7-.3.4-.3.4a2.0309,2.0309,0,0,0,.3,2.8h0a1.7921,1.7921,0,0,0,1.4.4,1.8539,1.8539,0,0,0,.7-.2l.3-.3c.1-.1.1-.1.2-.1l.1-.1,2.2-2.8a1.8563,1.8563,0,0,0-.2-2.8Z"/><path class="cls-3" d="M47.3,11.5a2.9533,2.9533,0,0,0-4.2.7l-3.2,4.5-.4-3.5a4.5772,4.5772,0,0,0-5-4L20.9,10.7a4.5772,4.5772,0,0,0-4,5l1.2,10.7a2.4852,2.4852,0,0,1-.1-.8,2.7206,2.7206,0,0,0-2.7-2.5h-.7a2.6888,2.6888,0,0,0-2.7,2.7v6c-.1,5.5.1,9.2.2,12.3.2,4.9,4.5,8.3,8,11A18.97,18.97,0,0,1,24,58.7a.5.5,0,0,0,.8-.6,20.51,20.51,0,0,0-4.1-3.7c-3.5-2.7-7.4-5.8-7.6-10.3-.2-3.1-.3-6.8-.2-12.2v-6a1.6855,1.6855,0,0,1,1.7-1.7h.7A1.6663,1.6663,0,0,1,17,25.8c.1.7.3,1.5.4,2.4a26.4755,26.4755,0,0,1,.7,4.8A9.1668,9.1668,0,0,1,17,36.3a.5.5,0,0,0,.8.6A10.4676,10.4676,0,0,0,19,34l1.3,11.5a4.5361,4.5361,0,0,0,4.5,4h.5L38.9,48h0a5.0477,5.0477,0,0,0,2.3-.9l.1.1a2.4519,2.4519,0,0,0,1.6.6,21.7413,21.7413,0,0,0-5.6,9c-.2.4-.3.9-.5,1.3a.4743.4743,0,1,0,.9.3c.2-.5.3-.9.5-1.4.9-2.7,1.8-5.2,6.5-9.8a2.6957,2.6957,0,0,0,.8-.7l2.2-2.8a3.006,3.006,0,0,0-.5-4.2,3.1571,3.1571,0,0,0-1.9-.7l2.4-3a3.006,3.006,0,0,0-.5-4.2,3.1023,3.1023,0,0,0-2.3-.6l1.7-2.4a3.0108,3.0108,0,0,0-4.9-3.5h0l-.7,1-.1-.6,7.1-10a2.8929,2.8929,0,0,0-.7-4Zm-22.2,37a3.6292,3.6292,0,0,1-3.9-3.1L17.8,15.6a3.5688,3.5688,0,0,1,3.1-3.9l13.6-1.5a3.6292,3.6292,0,0,1,3.9,3.1l.4,3.4.1,1.2.2,1.5.7,5.9.2,1.5.1.6L38.2,30a2.9533,2.9533,0,0,0,.7,4.2,2.7155,2.7155,0,0,0,1.7.6h.2l-1.7,2.1a3.006,3.006,0,0,0,.5,4.2,3.0771,3.0771,0,0,0,1.9.6h0l-.9,1.2a2.854,2.854,0,0,0-.2,3.4,3.63,3.63,0,0,1-1.7.7L26.3,48.4ZM44.1,25a2.0059,2.0059,0,0,1,2,2,1.9217,1.9217,0,0,1-.4,1.2L42.3,33a2.0969,2.0969,0,0,1-1.1.8.7559.7559,0,0,0-.4.1A1.9475,1.9475,0,0,1,38.7,32a2.01,2.01,0,0,1,.4-1.3L40.3,29l.3-.4.6-.8,1.4-1.9A1.4636,1.4636,0,0,1,44.1,25Zm2.4,7.5a1.9418,1.9418,0,0,1,.3,2.8l-3.3,4.2a3.3942,3.3942,0,0,0-.6.6l-.3.3a.0979.0979,0,0,0-.1.1,1.6446,1.6446,0,0,1-1,.2,1.7458,1.7458,0,0,1-1.2-.4,1.9418,1.9418,0,0,1-.3-2.8l1.1-1.3.3-.4.6-.7,1.7-2.2a1.9442,1.9442,0,0,1,2.8-.4Zm.7,9.2a2.0259,2.0259,0,0,1-.4,1.5L44.6,46l-.1.1a.3491.3491,0,0,0-.2.1l-.3.3a1.8539,1.8539,0,0,1-.7.2,1.7921,1.7921,0,0,1-1.4-.4h0a1.9418,1.9418,0,0,1-.3-2.8l.3-.4.3-.4.6-.7.6-.8.4-.5a.9984.9984,0,0,1,.5-.4,1.9345,1.9345,0,0,1,2.7.6,1.8839,1.8839,0,0,1,.2.8Zm0-26.6-6.5,9L40,18.2l3.9-5.4a2.223,2.223,0,0,1,1.3-.8h.3a2.0059,2.0059,0,0,1,2,2,2.6072,2.6072,0,0,1-.3,1.1Z"/><path class="cls-3" d="M31.2,13l-6,.7a.4406.4406,0,0,0-.4.6c0,.3.2.4.5.4h.1l6-.7a.4406.4406,0,0,0,.4-.6A.5483.5483,0,0,0,31.2,13Z"/><path class="cls-6" d="M4.5,13.6l4.6,1h.1a.4724.4724,0,0,0,.5-.5.6644.6644,0,0,0-.4-.5l-4.6-1c-.3-.1-.5.1-.6.4,0,.3.2.6.4.6Z"/><path class="cls-6" d="M18,.6a.4457.4457,0,0,0-.6-.3.4193.4193,0,0,0-.3.6l1.2,4.5a.51.51,0,1,0,1-.2h0Z"/><path class="cls-6" d="M9.7,4.6a.495.495,0,1,0-.7.7l3.4,3.2a.495.495,0,1,0,.7-.7Z"/></svg>