<?xml version="1.0" encoding="utf-8"?>
<!-- Generator: Adobe Illustrator 23.0.1, SVG Export Plug-In . SVG Version: 6.00 Build 0)  -->
<svg version="1.1" id="Layer_1" xmlns="http://www.w3.org/2000/svg" xmlns:xlink="http://www.w3.org/1999/xlink" x="0px" y="0px"
	 viewBox="0 0 650 53" style="enable-background:new 0 0 650 53;" xml:space="preserve">
<style type="text/css">
	.st0{fill:none;}
	.st1{fill:#FFFFFF;}
</style>
<g>
	<rect x="-45.51" y="-46.09" class="st0" width="740.26" height="144"/>
	<path class="st1" d="M290.85,7.91h7.3l4.58,17.51c0.69,3.01,1.53,7.7,1.53,7.7h0.1c0,0,0.88-4.39,1.62-7.5l3.85-17.7h6.9
		l3.84,17.66c0.74,3.11,1.63,7.54,1.63,7.54h0.1c0,0,1.03-4.68,1.73-7.75l4.43-17.45h7.05l-10.06,35.26h-6.66l-4.29-18.88
		c-0.59-2.57-1.23-6.27-1.23-6.27h-0.1c0,0-0.54,3.7-1.14,6.27l-4.34,18.88h-6.61L290.85,7.91z M349.84,40.36
		c0.15,1.13,0.4,2.32,0.79,2.81h6.46v-0.25c-0.59-0.44-0.89-1.58-0.89-3.5V26.56c0-5.91-3.06-9.32-10.65-9.32
		c-7.4,0-10.7,3.9-10.9,8.33h5.96c0.2-2.42,1.73-3.55,4.88-3.55c2.81,0,4.24,1.18,4.24,3.01c0,1.92-1.92,2.27-6.11,2.86
		c-5.62,0.79-10.16,2.57-10.16,8.14c0,5.03,3.65,7.74,8.83,7.74c4.34,0,6.16-1.47,7.44-3.4H349.84 M349.89,34.25
		c0,2.46-2.12,4.83-5.97,4.83c-2.36,0-3.94-0.84-3.94-3.21c0-2.36,1.72-3.16,5.23-3.95c1.68-0.39,3.5-0.78,4.68-1.47V34.25
		 M358.99,22.32h3.5v14.85c0,4.78,3.6,6.07,6.86,6.07c2.66,0,4.19-0.1,4.19-0.1v-4.93c0,0-1.13,0.05-1.97,0.05
		c-1.48,0-2.52-0.64-2.52-2.51V22.32h4.34v-4.44h-4.34V9.99h-6.56v7.88h-3.5V22.32z M376.14,34.99c0.4,5.37,4.49,8.92,11.84,8.92
		c6.31,0,10.65-3.06,10.65-8.14c0-5.91-4.69-7.1-8.93-7.99c-3.6-0.74-6.95-0.94-6.95-3.11c0-1.82,1.72-2.81,4.34-2.81
		c2.86,0,4.59,0.99,4.88,3.7h6.06c-0.49-5.08-4.19-8.38-10.85-8.38c-5.77,0-10.3,2.61-10.3,8.09c0,5.52,4.44,6.75,8.97,7.64
		c3.45,0.7,6.66,0.94,6.66,3.36c0,1.78-1.67,2.91-4.63,2.91c-3.01,0-5.08-1.28-5.52-4.19H376.14 M401.08,30.55
		c0,7.55,5.38,13.36,13.21,13.36c7.84,0,13.22-5.82,13.22-13.36c0-7.54-5.38-13.36-13.22-13.36
		C406.46,17.19,401.08,23.01,401.08,30.55 M420.71,30.55c0,4.93-2.32,8.23-6.41,8.23c-4.14,0-6.41-3.3-6.41-8.23
		c0-4.93,2.27-8.28,6.41-8.28C418.39,22.26,420.71,25.62,420.71,30.55 M437.62,17.88h-6.56v25.3h6.71V28.82
		c0-3.45,2.17-5.82,5.13-5.82c2.81,0,4.38,1.92,4.38,4.64v15.53h6.71V26.65c0-5.52-3.5-9.47-8.73-9.47c-3.45,0-5.77,1.43-7.49,4.14
		h-0.15V17.88z M129.72,7.91v6.01h10.6v29.25h7.15V13.93h10.6V7.91H129.72z M152.42,30.55c0,7.54,5.38,13.36,13.21,13.36
		c7.84,0,13.22-5.82,13.22-13.36c0-7.54-5.38-13.36-13.22-13.36C157.8,17.19,152.42,23.01,152.42,30.55 M172.05,30.55
		c0,4.93-2.32,8.23-6.41,8.23c-4.14,0-6.41-3.3-6.41-8.23c0-4.94,2.27-8.28,6.41-8.28C169.73,22.27,172.05,25.62,172.05,30.55
		 M187.21,43.17h6.06l3.45-12.43c0.55-2.03,1.18-4.39,1.18-4.39h0.1c0,0,0.6,2.36,1.14,4.39l3.35,12.43h6.12l7.55-25.3h-6.51
		l-3.21,11.73c-0.54,2.07-1.14,4.73-1.14,4.73h-0.1c0,0-0.64-2.66-1.18-4.78l-3.31-11.69H195l-3.16,11.69
		c-0.54,2.07-1.08,4.78-1.08,4.78h-0.1c0,0-0.59-2.66-1.14-4.73l-3.05-11.73h-6.66L187.21,43.17z M217.05,30.5
		c0,7.55,4.73,13.42,13.12,13.42c6.51,0,10.51-3.8,11.44-8.29h-6.61c-0.73,1.92-2.27,3.1-4.88,3.1c-3.8,0-5.97-2.41-6.46-6.31H242
		c0-9.03-4.34-15.23-12.48-15.23C222.12,17.19,217.05,23.01,217.05,30.5 M223.75,27.79c0.59-3.3,2.32-5.42,5.87-5.42
		c3.05,0,5.18,2.21,5.37,5.42H223.75 M252.38,17.88h-6.46v25.3h6.71V30.84c0-5.33,3.15-7.64,7.54-7.2h0.14v-5.87
		c-0.39-0.14-0.84-0.2-1.57-0.2c-2.96,0-4.69,1.48-6.21,4.34h-0.15V17.88z M262.07,34.99c0.39,5.37,4.49,8.93,11.84,8.93
		c6.31,0,10.65-3.06,10.65-8.14c0-5.91-4.69-7.1-8.93-7.99c-3.6-0.74-6.95-0.94-6.95-3.11c0-1.82,1.72-2.81,4.34-2.81
		c2.86,0,4.58,0.99,4.88,3.69h6.07c-0.49-5.08-4.19-8.38-10.85-8.38c-5.77,0-10.3,2.61-10.3,8.08c0,5.53,4.44,6.76,8.97,7.64
		c3.45,0.69,6.66,0.93,6.66,3.35c0,1.78-1.68,2.91-4.64,2.91c-3.01,0-5.08-1.28-5.52-4.19H262.07 M18.74,43.17h6.61l4.34-18.88
		c0.59-2.56,1.14-6.26,1.14-6.26h0.1c0,0,0.64,3.7,1.23,6.26l4.29,18.88h6.66L53.16,7.92h-7.05l-4.44,17.45
		c-0.69,3.06-1.73,7.74-1.73,7.74h-0.1c0,0-0.89-4.44-1.63-7.54L34.37,7.92h-6.9l-3.85,17.7c-0.74,3.11-1.63,7.5-1.63,7.5h-0.1
		c0,0-0.84-4.69-1.52-7.7l-4.59-17.5h-7.3L18.74,43.17z M55.9,7.92h6.71v6.02H55.9V7.92z M55.9,17.88h6.71v25.29H55.9V17.88z
		 M68.11,43.17h6.71V7.92h-6.71V43.17z M80.32,43.17h6.71V7.92h-6.71V43.17z M92.49,7.92h6.71v6.02h-6.71V7.92z M92.49,17.88h6.71
		v25.29h-6.71V17.88z M102.98,34.99c0.4,5.38,4.49,8.92,11.84,8.92c6.31,0,10.65-3.05,10.65-8.13c0-5.92-4.69-7.1-8.93-7.99
		c-3.6-0.74-6.95-0.93-6.95-3.1c0-1.82,1.72-2.81,4.34-2.81c2.86,0,4.58,0.99,4.88,3.7h6.07c-0.49-5.08-4.19-8.39-10.85-8.39
		c-5.77,0-10.3,2.61-10.3,8.09c0,5.52,4.44,6.75,8.97,7.64c3.45,0.69,6.66,0.94,6.66,3.36c0,1.77-1.68,2.91-4.64,2.91
		c-3.01,0-5.08-1.29-5.52-4.19H102.98 M484.04,43.2h11.76V7.92h-11.76V43.2z M519.27,43.2h11.76V7.92h-11.76V43.2z M501.65,43.2
		h11.76V25.56h-11.76V43.2z M593.77,43.2h11.76V7.92h-11.76V43.2z M629,43.2h11.76V7.92H629V43.2z M611.38,43.2h11.76V25.56h-11.76
		V43.2z M556.51,43.2h11.76V7.92h-11.76V43.2z M538.9,25.56h11.76V7.92H538.9V25.56z M574.12,25.56h11.76V7.92h-11.76V25.56z"/>
</g>
</svg>
