<svg id="Layer_1" data-name="Layer 1" xmlns="http://www.w3.org/2000/svg" viewBox="0 0 172 54"><defs><style>.cls-1{fill:none;}.cls-2{fill:#fff;}</style></defs><title>WTW</title><rect class="cls-1" x="-521.51" y="-45.09" width="740.26" height="144"/><path class="cls-2" d="M-185.15,8.91h7.29l4.59,17.51c.69,3,1.52,7.7,1.52,7.7h.11s.88-4.4,1.62-7.5l3.85-17.71h6.9l3.85,17.66c.74,3.11,1.63,7.55,1.63,7.55h.09s1-4.69,1.73-7.75l4.44-17.46h7.05l-10.06,35.26h-6.66l-4.29-18.88c-.59-2.57-1.23-6.26-1.23-6.26h-.1s-.54,3.69-1.13,6.26l-4.34,18.88h-6.61Zm59,32.45a6.76,6.76,0,0,0,.79,2.81h6.46v-.24c-.59-.45-.89-1.58-.89-3.5V27.56c0-5.92-3.06-9.32-10.65-9.32-7.39,0-10.7,3.9-10.89,8.33h6c.2-2.42,1.72-3.55,4.88-3.55,2.81,0,4.24,1.18,4.24,3s-1.92,2.27-6.11,2.86c-5.62.79-10.16,2.56-10.16,8.13,0,5,3.65,7.74,8.83,7.74,4.34,0,6.16-1.47,7.44-3.4h.1m0-6.11c0,2.46-2.12,4.83-6,4.83-2.36,0-3.94-.84-3.94-3.2s1.72-3.16,5.23-4a18.53,18.53,0,0,0,4.68-1.48v3.8m9.1-11.93h3.5V38.16c0,4.78,3.61,6.07,6.86,6.07,2.66,0,4.19-.11,4.19-.11V39.19s-1.13.05-2,.05a2.22,2.22,0,0,1-2.52-2.51V23.32h4.35V18.88h-4.35V11h-6.56v7.89H-117ZM-99.86,36c.4,5.37,4.49,8.92,11.84,8.92,6.31,0,10.65-3.06,10.65-8.13,0-5.92-4.69-7.1-8.93-8-3.6-.74-7-.94-7-3.11,0-1.82,1.72-2.81,4.34-2.81,2.86,0,4.59,1,4.88,3.7H-78c-.49-5.08-4.2-8.38-10.85-8.38-5.77,0-10.31,2.61-10.31,8.09s4.44,6.75,9,7.63c3.45.7,6.65.94,6.65,3.36,0,1.77-1.67,2.91-4.63,2.91S-93.2,38.9-93.64,36h-6.22m25-4.44c0,7.55,5.37,13.36,13.21,13.36s13.22-5.81,13.22-13.36S-53.86,18.19-61.7,18.19-74.91,24-74.91,31.55m19.62,0c0,4.93-2.32,8.23-6.41,8.23s-6.41-3.3-6.41-8.23,2.27-8.29,6.41-8.29,6.41,3.36,6.41,8.29m16.92-12.67h-6.56V44.17h6.7V29.82c0-3.45,2.17-5.81,5.13-5.81s4.39,1.92,4.39,4.63V44.17H-22V27.65c0-5.52-3.5-9.46-8.73-9.46a8.23,8.23,0,0,0-7.5,4.14h-.14Zm-307.9-10v6h10.59V44.17h7.15V14.93h10.61v-6Zm22.69,22.64c0,7.55,5.38,13.36,13.22,13.36s13.22-5.81,13.22-13.36-5.38-13.36-13.22-13.36S-323.58,24-323.58,31.55m19.63,0c0,4.93-2.32,8.23-6.41,8.23s-6.41-3.3-6.41-8.23,2.27-8.28,6.41-8.28,6.41,3.35,6.41,8.28m15.16,12.62h6.06l3.46-12.42c.54-2,1.18-4.39,1.18-4.39h.1s.6,2.36,1.14,4.39l3.35,12.42h6.11l7.55-25.29h-6.51l-3.21,11.73c-.54,2.07-1.13,4.73-1.13,4.73h-.1s-.64-2.66-1.18-4.78l-3.31-11.68H-281l-3.15,11.68c-.54,2.07-1.09,4.78-1.09,4.78h-.09s-.6-2.66-1.14-4.73l-3-11.73h-6.66Zm29.84-12.67c0,7.54,4.73,13.41,13.11,13.41,6.52,0,10.51-3.8,11.45-8.28H-241c-.74,1.92-2.27,3.1-4.88,3.1-3.8,0-6-2.41-6.46-6.31H-234c0-9-4.34-15.23-12.48-15.23-7.39,0-12.47,5.82-12.47,13.31m6.7-2.71c.6-3.3,2.32-5.43,5.87-5.43,3.06,0,5.18,2.22,5.38,5.43h-11.25m28.63-9.91h-6.46V44.17h6.71V31.84c0-5.32,3.15-7.64,7.54-7.2h.15V18.77a4.56,4.56,0,0,0-1.57-.19c-3,0-4.69,1.48-6.22,4.34h-.15ZM-213.93,36c.4,5.37,4.49,8.92,11.84,8.92,6.31,0,10.65-3.06,10.65-8.14,0-5.91-4.69-7.1-8.93-8-3.6-.74-6.95-.94-6.95-3.11,0-1.82,1.73-2.81,4.34-2.81,2.86,0,4.59,1,4.88,3.7H-192c-.49-5.08-4.19-8.38-10.85-8.38-5.77,0-10.31,2.61-10.31,8.08s4.44,6.76,9,7.65c3.45.68,6.65.93,6.65,3.35,0,1.78-1.67,2.91-4.63,2.91s-5.08-1.28-5.52-4.19h-6.22m-243.33,8.18h6.61l4.34-18.88c.59-2.56,1.13-6.26,1.13-6.26h.1s.64,3.7,1.23,6.26l4.3,18.88h6.65l10.06-35.25h-7.05l-4.44,17.45c-.69,3.06-1.72,7.75-1.72,7.75h-.1s-.89-4.44-1.63-7.54l-3.85-17.66h-6.9l-3.85,17.7c-.74,3.11-1.62,7.5-1.62,7.5h-.11s-.83-4.69-1.52-7.7l-4.59-17.5h-7.29Zm37.17-35.25h6.7v6h-6.7Zm0,10h6.7V44.17h-6.7Zm12.2,25.29h6.71V8.92h-6.71Zm12.21,0H-389V8.92h-6.71Zm12.17-35.25h6.71v6h-6.71Zm0,10h6.71V44.17h-6.71ZM-373,36c.4,5.38,4.49,8.92,11.84,8.92,6.31,0,10.65-3,10.65-8.13,0-5.92-4.69-7.1-8.93-8-3.6-.74-7-.93-7-3.1,0-1.83,1.72-2.82,4.34-2.82,2.86,0,4.58,1,4.88,3.71h6.07c-.5-5.08-4.2-8.39-10.85-8.39-5.77,0-10.31,2.61-10.31,8.09s4.44,6.75,9,7.64c3.45.69,6.65.94,6.65,3.35,0,1.78-1.67,2.92-4.63,2.92s-5.08-1.29-5.52-4.2H-373M8,44.2H19.8V8.92H8Zm35.23,0H55V8.92H43.27Zm-17.61,0H37.42V26.56H25.66Zm92.11,0h11.76V8.92H117.77Zm35.23,0h11.76V8.92H153Zm-17.62,0h11.76V26.56H135.38Zm-54.87,0H92.28V8.92H80.51ZM62.9,26.56H74.67V8.92H62.9Zm35.23,0h11.76V8.92H98.13Z"/></svg>